<svg width="18" height="18" viewBox="0 0 18 18" fill="none" xmlns="http://www.w3.org/2000/svg">
<path d="M15.895 0H1.23546C0.553101 0 0 0.581177 0 1.29817V16.7018C0 17.4188 0.553101 18 1.23546 18H9.15073V11.0391H6.92578V8.31445H9.15073V6.30931C9.15073 3.98405 10.5017 2.71843 12.4757 2.71843C13.4212 2.71843 14.2337 2.79245 14.4705 2.82555V5.25586H13.1093C12.0353 5.25586 11.8274 5.79213 11.8274 6.57916V8.31445H14.3953L14.0607 11.0391H11.8274V18H15.895C16.5773 18 17.1304 17.4188 17.1304 16.7018V1.29817C17.1304 0.581177 16.5773 0 15.895 0V0Z" fill="white"/>
</svg>
