<svg width="79" height="60" viewBox="0 0 79 60" fill="none" xmlns="http://www.w3.org/2000/svg">
<path d="M0.207031 1.76956H4.15903V11.0016H5.40703V1.76956H9.18303L9.32703 0.601562H0.351031L0.207031 1.76956Z" fill="white"/>
<path d="M19.1103 11.0016H20.3583V0.601562H19.1103V5.22556H12.6783V0.601562H11.4303V11.0016H12.6783V6.40956H19.1103V11.0016Z" fill="white"/>
<path d="M23.8553 11.0016H31.1833L31.3273 9.83356H25.1033V6.37756H30.1593L30.3033 5.19356H25.1033V1.76956H31.1833L31.3273 0.601562H23.8553V11.0016Z" fill="white"/>
<path d="M7.08703 33.6096H7.21503L11.471 27.9136V35.0016H12.671V24.5056H12.575L7.16703 31.8496L1.71103 24.5056H1.59903V35.0016H2.81503V27.9136L7.08703 33.6096Z" fill="white"/>
<path d="M20.8687 35.1456C22.3887 35.1456 23.7487 34.5536 24.7087 33.5776C25.6847 32.6016 26.2607 31.2736 26.2607 29.7856C26.2607 28.3136 25.6847 27.0016 24.7247 26.0416C23.7487 25.0656 22.3887 24.4576 20.8687 24.4576C19.3487 24.4576 17.9887 25.0656 17.0127 26.0416C16.0527 27.0016 15.4767 28.3296 15.4767 29.8016C15.4767 31.2896 16.0527 32.6016 17.0287 33.5776C17.9887 34.5536 19.3487 35.1456 20.8687 35.1456ZM20.8687 33.9936C19.7327 33.9936 18.7087 33.5296 17.9567 32.7776C17.2047 32.0256 16.7407 30.9696 16.7407 29.7856C16.7407 28.6176 17.2047 27.5776 17.9567 26.8416C18.6927 26.0896 19.7167 25.6416 20.8687 25.6416C22.0207 25.6416 23.0447 26.0896 23.7807 26.8416C24.5327 27.5776 24.9967 28.6176 24.9967 29.7856C24.9967 30.9696 24.5327 32.0256 23.7807 32.7776C23.0287 33.5296 22.0047 33.9776 20.8687 33.9936Z" fill="white"/>
<path d="M29.074 35.0016H30.322V29.9136L35.442 35.0016H37.154L32.546 30.5056C32.834 30.5536 33.01 30.5536 33.202 30.5536H34.05C35.938 30.5536 37.202 29.4496 37.202 27.5936C37.202 25.8336 35.938 24.6016 34.066 24.6016H29.074V35.0016ZM34.082 25.7696C35.202 25.7696 35.922 26.5056 35.922 27.5936C35.922 28.6656 35.202 29.4976 34.082 29.4976H30.322V25.7696H34.082Z" fill="white"/>
<path d="M48.8779 24.6016H47.6619V32.2336L40.1579 24.5056H40.0459V35.0016H41.2459V27.4336L48.7659 35.0976H48.8779V24.6016Z" fill="white"/>
<path d="M52.3772 35.0016H53.6252V24.6016H52.3772V35.0016Z" fill="white"/>
<path d="M65.9623 24.6016H64.7463V32.2336L57.2423 24.5056H57.1303V35.0016H58.3303V27.4336L65.8503 35.0976H65.9623V24.6016Z" fill="white"/>
<path d="M76.7255 34.6976C77.4455 34.3936 78.0695 33.9456 78.6775 33.3856V29.4656H74.2935V30.6336H77.4295V32.9056C76.5655 33.5776 75.5415 33.9936 74.3095 33.9936C73.1415 33.9936 72.0695 33.5776 71.2855 32.8416C70.5175 32.0896 70.0055 30.9856 70.0055 29.7856C70.0055 28.6016 70.5015 27.5136 71.2695 26.7616C72.0375 26.0416 73.0615 25.6256 74.2135 25.6256C75.5575 25.6256 76.6135 26.1536 77.6375 27.2736L78.5335 26.3616C77.4775 25.1776 75.9575 24.4576 74.2135 24.4576C72.7575 24.4576 71.4455 24.9856 70.4535 25.9136C69.4135 26.8416 68.7735 28.2816 68.7735 29.7856C68.7735 31.3056 69.4135 32.7456 70.4855 33.7056C71.4775 34.6336 72.8375 35.1456 74.3095 35.1456C75.2055 35.1456 75.9895 34.9856 76.7255 34.6976Z" fill="white"/>
<path d="M10.287 50.1856C9.32703 49.0816 7.98303 48.4576 6.27103 48.4576C4.83103 48.4576 3.53503 48.9696 2.55903 49.8976C1.51903 50.8256 0.911031 52.3136 0.911031 53.8176C0.911031 55.3376 1.48703 56.7936 2.52703 57.7216C3.50303 58.6336 4.83103 59.1456 6.27103 59.1456C7.87103 59.1456 9.31103 58.5696 10.351 57.3216L9.48703 56.5056C8.62303 57.4656 7.53503 57.9616 6.27103 57.9616C5.16703 57.9616 4.12703 57.5456 3.35903 56.8256C2.62303 56.0896 2.17503 54.9696 2.17503 53.7856C2.17503 52.6176 2.65503 51.5136 3.39103 50.7776C4.15903 50.0576 5.16703 49.6256 6.27103 49.6256C7.51903 49.6256 8.63903 50.1856 9.40703 51.0656L10.287 50.1856Z" fill="white"/>
<path d="M17.2437 59.1456C18.7637 59.1456 20.1237 58.5536 21.0837 57.5776C22.0597 56.6016 22.6357 55.2736 22.6357 53.7856C22.6357 52.3136 22.0597 51.0016 21.0997 50.0416C20.1237 49.0656 18.7637 48.4576 17.2437 48.4576C15.7237 48.4576 14.3637 49.0656 13.3877 50.0416C12.4277 51.0016 11.8517 52.3296 11.8517 53.8016C11.8517 55.2896 12.4277 56.6016 13.4037 57.5776C14.3637 58.5536 15.7237 59.1456 17.2437 59.1456ZM17.2437 57.9936C16.1077 57.9936 15.0837 57.5296 14.3317 56.7776C13.5797 56.0256 13.1157 54.9696 13.1157 53.7856C13.1157 52.6176 13.5797 51.5776 14.3317 50.8416C15.0677 50.0896 16.0917 49.6416 17.2437 49.6416C18.3957 49.6416 19.4197 50.0896 20.1557 50.8416C20.9077 51.5776 21.3717 52.6176 21.3717 53.7856C21.3717 54.9696 20.9077 56.0256 20.1557 56.7776C19.4037 57.5296 18.3797 57.9776 17.2437 57.9936Z" fill="white"/>
<path d="M34.281 48.6016H33.065V56.2336L25.561 48.5056H25.449V59.0016H26.649V51.4336L34.169 59.0976H34.281V48.6016Z" fill="white"/>
<path d="M36.3883 49.7696H40.3403V59.0016H41.5883V49.7696H45.3643L45.5083 48.6016H36.5323L36.3883 49.7696Z" fill="white"/>
<path d="M47.6115 59.0016H54.9395L55.0835 57.8336H48.8595V54.3776H53.9155L54.0595 53.1936H48.8595V49.7696H54.9395L55.0835 48.6016H47.6115V59.0016Z" fill="white"/>
<path d="M64.7945 59.0016H66.2985L62.1545 53.6736L66.1225 48.6016H64.6985L61.4025 52.8096L58.2185 48.6016H56.7145L60.6345 53.7536L56.5545 59.0016H57.9945L61.4025 54.6336L64.7945 59.0016Z" fill="white"/>
<path d="M67.1789 49.7696H71.1309V59.0016H72.3789V49.7696H76.1549L76.2989 48.6016H67.3229L67.1789 49.7696Z" fill="white"/>
</svg>
