<svg width="61" height="28" viewBox="0 0 61 28" fill="none" xmlns="http://www.w3.org/2000/svg">
<path d="M0.710938 1.11776H2.80846V6.11611H3.66532V1.11776H5.64681L5.74499 0.314453H0.809119L0.710938 1.11776Z" fill="#051462"/>
<path d="M13.7322 6.11611H14.5891V0.314453H13.7322V2.85826H10.3941V0.314453H9.53719V6.11611H10.3941V3.66156H13.7322V6.11611Z" fill="#051462"/>
<path d="M19.0963 6.11611H23.211L23.3092 5.32173H19.9532V3.60801H22.6933L22.7915 2.8047H19.9532V1.11776H23.2021L23.3003 0.314453H19.0963V6.11611Z" fill="#051462"/>
<path d="M4.4954 16.086H4.54895L6.76251 13.2388V16.8269H7.59259V10.9538H7.53011L4.52218 14.8811L1.49639 10.9538H1.42499V16.8269H2.264V13.2477L4.4954 16.086Z" fill="#051462"/>
<path d="M16.9018 16.0414C17.4373 15.4969 17.7676 14.7561 17.7676 13.926C17.7676 13.1049 17.4463 12.364 16.9107 11.8285C16.3573 11.284 15.5987 10.9449 14.7418 10.9449C13.8849 10.9449 13.1263 11.284 12.5729 11.8285C12.0373 12.364 11.716 13.1049 11.716 13.926C11.716 14.765 12.0373 15.4969 12.5818 16.0325C13.1263 16.5769 13.8849 16.9072 14.7418 16.9072C15.5987 16.9072 16.3573 16.5859 16.9018 16.0414ZM13.2155 15.4791C12.8228 15.0864 12.5907 14.533 12.5907 13.926C12.5907 13.3191 12.8228 12.7746 13.2244 12.3908C13.5993 11.9981 14.1349 11.766 14.7418 11.766C15.3398 11.766 15.8843 11.9981 16.2681 12.3908C16.6519 12.7746 16.8929 13.3191 16.8929 13.926C16.8929 14.5419 16.6519 15.0953 16.2592 15.4791C15.8754 15.8718 15.3309 16.1039 14.7418 16.1039C14.1438 16.1039 13.6083 15.8718 13.2155 15.4791Z" fill="#051462"/>
<path d="M21.8856 16.8269H22.7335V14.1224L25.3933 16.8269H26.5358L24.0991 14.3991C24.233 14.4169 24.3133 14.4169 24.3937 14.4169H24.7507C25.8039 14.4169 26.5001 13.7743 26.5001 12.7568C26.5001 11.7482 25.7593 11.0252 24.6971 11.0252H21.8856V16.8269ZM24.6257 11.8107C25.2148 11.8107 25.5986 12.1945 25.5986 12.7568C25.5986 13.3191 25.2148 13.7475 24.6257 13.7475H22.7335V11.8107H24.6257Z" fill="#051462"/>
<path d="M35.6939 11.0252H34.8727V14.9703L30.7491 10.9716H30.6777V16.8269H31.4988V12.8728L35.6314 16.8804H35.6939V11.0252Z" fill="#051462"/>
<path d="M40.2019 16.8269H41.0588V11.0252H40.2019V16.8269Z" fill="#051462"/>
<path d="M50.5847 11.0252H49.7635V14.9703L45.6399 10.9716H45.5685V16.8269H46.3896V12.8728L50.5222 16.8804H50.5847V11.0252Z" fill="#051462"/>
<path d="M59.2164 16.6305C59.6359 16.4341 59.9929 16.1753 60.3231 15.8183V13.7029H57.7526V14.4616L59.4663 14.4526V15.4969C59.0289 15.9075 58.4755 16.1217 57.824 16.1217C57.1992 16.1217 56.6369 15.9075 56.2352 15.5326C55.8246 15.1399 55.5658 14.5508 55.5658 13.926C55.5658 13.2834 55.8246 12.7211 56.2441 12.3283C56.6369 11.9713 57.1724 11.7571 57.7883 11.7571C58.5291 11.7571 59.0646 12.0338 59.6002 12.605L60.225 12.0249C59.6091 11.3197 58.7612 10.9449 57.7883 10.9449C56.9671 10.9449 56.2084 11.2394 55.655 11.766C55.0659 12.2837 54.7089 13.0781 54.7089 13.926C54.7089 14.765 55.0659 15.5862 55.664 16.1128C56.2174 16.6394 56.985 16.9072 57.815 16.9072C58.3327 16.9072 58.779 16.8179 59.2164 16.6305Z" fill="#051462"/>
<path d="M6.29838 22.6017C5.74499 21.9859 4.98631 21.6556 4.05805 21.6556C3.24581 21.6556 2.51391 21.9412 1.96945 22.4678C1.38036 22.9855 1.04119 23.8067 1.04119 24.6457C1.04119 25.4936 1.37143 26.2969 1.9516 26.8146C2.49606 27.3323 3.24581 27.6179 4.05805 27.6179C4.93276 27.6179 5.73606 27.3234 6.32515 26.6361L5.73606 26.0559C5.27193 26.5647 4.70962 26.8057 4.04912 26.8057C3.46895 26.8057 2.92449 26.5915 2.53176 26.2166C2.14796 25.8239 1.9159 25.2526 1.9159 24.6368C1.9159 24.0209 2.15689 23.4586 2.54069 23.0659C2.94234 22.691 3.46895 22.4678 4.04912 22.4678C4.70069 22.4678 5.28086 22.7356 5.69143 23.1997L6.29838 22.6017Z" fill="#051462"/>
<path d="M14.9406 26.7521C15.4761 26.2077 15.8064 25.4669 15.8064 24.6368C15.8064 23.8156 15.4851 23.0748 14.9495 22.5392C14.3961 21.9948 13.6375 21.6556 12.7806 21.6556C11.9237 21.6556 11.1651 21.9948 10.6117 22.5392C10.0761 23.0748 9.75482 23.8156 9.75482 24.6368C9.75482 25.4758 10.0761 26.2077 10.6206 26.7432C11.1651 27.2877 11.9237 27.6179 12.7806 27.6179C13.6375 27.6179 14.3961 27.2966 14.9406 26.7521ZM11.2543 26.1898C10.8616 25.7971 10.6295 25.2437 10.6295 24.6368C10.6295 24.0298 10.8616 23.4854 11.2633 23.1016C11.6381 22.7088 12.1737 22.4768 12.7806 22.4768C13.3786 22.4768 13.9231 22.7088 14.3069 23.1016C14.6907 23.4854 14.9317 24.0298 14.9317 24.6368C14.9317 25.2526 14.6907 25.806 14.298 26.1898C13.9142 26.5826 13.3697 26.8146 12.7806 26.8146C12.1826 26.8146 11.6471 26.5826 11.2543 26.1898Z" fill="#051462"/>
<path d="M24.9406 21.7359H24.1194V25.6811L19.9958 21.6824H19.9244V27.5376H20.7455V23.5835L24.8781 27.5912H24.9406V21.7359Z" fill="#051462"/>
<path d="M28.7346 22.5392H30.8321V27.5376H31.689V22.5392H33.6705L33.7687 21.7359H28.8328L28.7346 22.5392Z" fill="#051462"/>
<path d="M37.5609 27.5376H41.6756L41.7737 26.7432H38.4177V25.0295H41.1579L41.2561 24.2262H38.4177V22.5392H41.6666L41.7648 21.7359H37.5609V27.5376Z" fill="#051462"/>
<path d="M49.7381 27.5376H50.7646L48.5064 24.5654L50.6664 21.7359H49.6935L47.9887 23.9584L46.3464 21.7359H45.3289L47.4532 24.6189L45.2218 27.5376H46.2125L47.9798 25.2259L49.7381 27.5376Z" fill="#051462"/>
<path d="M53.8557 22.5392H55.9532V27.5376H56.8101V22.5392H58.7916L58.8897 21.7359H53.9539L53.8557 22.5392Z" fill="#051462"/>
</svg>
